PathFileType	4	(X/Y/Z)	RBDS016\RBDS016runT45.trc
DataRate	CameraRate	NumFrames	NumMarkers	Units	OrigDataRate	OrigDataStartFrame	OrigNumFrames
150.000000	150.000000	5	33	mm	150.000000	1687	4500
Frame#	Time	L.ASIS			L.Heel.Bottom			L.Heel.Lateral			L.Heel.Top			L.Iliac.Crest			L.MT1			L.MT5			L.PSIS			L.Shank.Bottom.Lateral			L.Shank.Bottom.Medial			L.Shank.Top.Lateral			L.Shank.Top.Medial			L.Thigh.Bottom.Lateral			L.Thigh.Bottom.Medial			L.Thigh.Top.Lateral			L.Thigh.Top.Medial			R.ASIS			R.ASY			R.Heel.Bottom			R.Heel.Lateral			R.Heel.Top			R.Iliac.Crest			R.MT1			R.MT5			R.PSIS			R.Shank.Bottom.Lateral			R.Shank.Bottom.Medial			R.Shank.Top.Lateral			R.Shank.Top.Medial			R.Thigh.Bottom.Lateral			R.Thigh.Bottom.Medial			R.Thigh.Top.Lateral			R.Thigh.Top.Medial			
		X1	Y1	Z1	X2	Y2	Z2	X3	Y3	Z3	X4	Y4	Z4	X5	Y5	Z5	X6	Y6	Z6	X7	Y7	Z7	X8	Y8	Z8	X9	Y9	Z9	X10	Y10	Z10	X11	Y11	Z11	X12	Y12	Z12	X13	Y13	Z13	X14	Y14	Z14	X15	Y15	Z15	X16	Y16	Z16	X17	Y17	Z17	X18	Y18	Z18	X19	Y19	Z19	X20	Y20	Z20	X21	Y21	Z21	X22	Y22	Z22	X23	Y23	Z23	X24	Y24	Z24	X25	Y25	Z25	X26	Y26	Z26	X27	Y27	Z27	X28	Y28	Z28	X29	Y29	Z29	X30	Y30	Z30	X31	Y31	Z31	X32	Y32	Z32	X33	Y33	Z33	

1688	11.24666666666667	2450.591152418622	867.6960465735315	843.6484203873828	2132.614224698908	384.5195515544707	906.2000449923721	2156.591346498327	370.758335445246	861.3021295989158	2179.940036770976	390.2154193044394	903.8149795334822	2365.42164910205	931.3031913698962	791.387392746435	2223.911669552997	183.263930968752	919.9748294791185	2196.953245356799	221.2756546387518	822.1473672902083	2263.494529116329	906.9397114797021	915.087070991347	2281.898076612712	387.2450203444063	844.7494864465359	2276.303717916109	407.3790891683821	896.1304464586528	2351.493836925355	425.9962505825118	837.6715657094029	2347.347388084729	445.036593817456	887.734626979744	2529.686341146799	537.6469985294057	799.2077904452921	2479.182494124375	507.7017676196558	842.7183297565863	2463.73973138029	623.7133408921696	780.7675556327505	2413.62620914515	593.0088273329641	818.9315883639762	2448.030522314128	873.3723115689243	1079.09753909581	2154.435978826739	75.71315081119681	1009.590691238744	1971.1764572275	73.11217394748094	956.0834854916263	1992.870067723428	88.61139059907167	1003.471577168596	1994.163151612262	119.5818386344272	959.9041268374294	2365.316566184453	937.9603889850358	1125.44857237982	2183.583680030474	44.52987971417171	974.3980367853478	2123.567065172067	36.14617888311417	1069.758883646243	2264.135572703479	917.6411539476865	1014.152951451126	2086.800657696815	175.5965391230579	1037.889875000352	2062.209508232253	203.9133197594776	1003.272516836206	2129.216669324333	245.3205644953247	1061.760577154059	2100.742324410711	271.6394570177142	1025.126130196506	2287.061897644985	526.3696905288898	1109.914856736523	2233.054595328717	538.8070560158718	1063.049379021107	2291.468798848206	635.1744013667676	1129.970934634257	2241.232685076734	646.2381698090054	1084.873534230803	
1689	11.25333333333333	2452.350642870067	874.8189877533795	843.3656199959017	2148.273137951647	359.3309202789829	907.4680410338932	2173.07293865541	347.897247020807	862.2456513169941	2194.957786457144	369.4601251571709	904.5976418805213	2366.180213619223	937.368936858764	791.0665633333969	2257.562831716254	167.0036740286219	919.9339303706307	2226.352468024949	202.6977544915715	822.450359970101	2266.198014969111	912.4615836906831	916.8779553673803	2297.373492220638	374.9059736916032	845.3989863071872	2290.090865796277	394.812860711737	896.6621628653194	2363.569063240755	419.4691236125162	838.1609226114365	2357.754447846227	438.441881955984	888.136709138672	2539.089550010589	548.5701240300567	799.8320317584636	2488.862368457686	517.2097318635973	842.7427078164405	2471.135371898797	632.7808974344007	780.5424918233109	2421.27439439231	600.6458728429036	817.9528398005262	2450.933222619748	874.632674071825	1077.656118531476	2127.89938384777	76.28312954964979	1011.077062141421	1945.663683998988	85.15161758881649	957.3732162838959	1967.787443722386	98.28235692294159	1005.109769190734	1970.712590666287	130.0599406128058	962.2811034628863	2371.548710885048	940.7935458610176	1125.962018334413	2154.586140386182	43.55325556937807	974.7196379866194	2094.467299892007	37.14358120892627	1070.071716741385	2267.523747664521	922.3954023724781	1016.325919968564	2062.656700714176	183.7252897625292	1039.630494183956	2038.205922241408	211.800022008022	1004.716473880555	2105.329406369879	253.4858165850842	1062.879957663913	2076.906289415183	279.5882131123892	1026.086913255914	2272.428391467068	533.3851173381382	1109.029199260078	2218.781445397186	548.9021673600087	1062.751062673728	2283.232461928599	641.696054416836	1129.153959447837	2233.34989260566	655.6413630502771	1084.398521736698	
1690	11.26	2454.328527885426	882.0339730487544	843.593961819137	2165.829659912267	333.4022516163237	909.3079346574604	2191.23044424653	324.4891275049783	863.7741232700017	2211.460453490351	347.9261840510038	906.0170746882378	2367.615623799406	944.0184519782991	790.8741064688783	2292.552391817299	151.5991526208863	919.736426516428	2257.149405048967	184.854818480759	822.7342738063937	2269.177420928118	918.2397446975669	918.1118077438005	2313.462173126736	362.032089200603	846.3712334002433	2304.629538677571	381.4859506797197	897.5947786908698	2375.77104656111	412.1694020888172	838.9435116748575	2368.388436487061	430.8608030253069	888.872293483072	2547.382210397806	559.0132252415267	800.5826807275907	2497.273451720465	526.5593015287304	842.8424483870207	2477.965022225374	641.6601087791792	780.3055217065134	2428.223908128501	608.4204768579104	816.9459809736431	2453.731927397397	876.0956460954836	1076.24062421936	2102.350407434344	77.12697512260665	1012.700978276391	1922.058643856926	98.90972238540382	958.7557890501487	1944.511316008346	109.4155022620525	1006.842934093017	1949.454033002672	141.8409837771135	964.8120991254984	2378.364587305534	943.6625275782113	1126.031316238163	2126.204089496299	42.78949349392929	975.1438513708031	2065.997582364297	38.80849852169688	1070.46366710581	2271.01573912421	927.2467557189954	1017.957619880221	2040.076951854308	192.7340318180511	1041.607263607783	2015.806147981745	220.4529499079574	1006.26834405488	2082.820355640719	262.6801398967158	1064.185811899879	2054.490506419248	288.4358747711016	1027.113434684413	2258.533481025051	541.342546079766	1108.253587495106	2205.528002746749	559.8167543416961	1062.394225729623	2275.495037461649	648.8078781506807	1128.417837742488	2226.216002294958	665.5000867458305	1083.880303521129	
1691	11.26666666666667	2456.422930663083	889.2264018135695	844.3501332567238	2185.477914744082	307.0030743895497	911.5769103956831	2211.23228939692	300.7376748897569	865.7641943363055	2229.636642103084	325.8167673927421	907.9499701062286	2369.626569097344	951.2222908411115	790.8525915990108	2328.808300351364	137.2722186606337	919.4265173891929	2289.337674793197	167.9026770270558	823.0021550348225	2272.330773161726	924.1989314768452	918.8091424096617	2330.314237757045	348.6992570768559	847.6199525764667	2320.093764026475	367.4889992183061	898.8739941236807	2388.266811437978	404.0876962218837	839.9867317081665	2379.451088467528	422.2889899289279	889.9141347169004	2554.526489900271	568.7675453299554	801.4612468968757	2504.362112292849	535.4863842085581	842.9825755307072	2484.129853879074	650.1709891042801	780.1104627808915	2434.356183148402	616.1075096239005	815.9315967458846	2456.344891008285	877.7301625588468	1074.932514101566	2077.827519306685	78.39958129026807	1014.437975291898	1900.523032677124	114.2255308097447	960.1586690441139	1923.156382462481	121.9342700085911	1008.595658008472	1930.475974248811	154.7797181318861	967.3968695781061	2385.678159544859	946.5552146491486	1125.613894558887	2098.538705561797	42.47757224828402	975.6967565463913	2038.256106379806	41.33152128704305	1070.928402488111	2274.515467755625	932.1414888567315	1019.051860666926	2019.173938081929	202.5034703652872	1043.740058370391	1995.1562717456	229.7669087850201	1007.84630459907	2061.848757002328	272.749072134173	1065.609875551664	2033.693209425637	298.0445997555323	1028.12585260372	2245.470986818592	550.0720908333027	1107.605322312216	2193.374073109538	571.3213508214491	1061.964187658234	2268.263225782126	656.4128409074034	1127.757580588721	2219.83626796112	675.662303287947	1083.281287292172	
1692	11.27333333333333	2458.52971625758	896.2839906647315	845.6135372393757	2207.348839906787	280.4090739629824	914.1197606941947	2233.192285169098	276.8535389877342	868.0708506098824	2249.618198541804	303.3499799682896	910.2417442265099	2372.094053877333	958.8978799514083	791.0302808140427	2366.212570591626	124.2428924442307	919.0737210655401	2322.875850558148	151.9910000383969	823.2775505491386	2275.551268705449	930.26209462498	919.0266638195864	2348.043240382822	335.0065518866737	849.0764675463093	2336.608657726512	352.9441107919246	900.4191547120698	2401.189215355321	395.2513341199364	841.2296015596826	2391.102822593484	412.7672753095942	891.2023605138984	2560.475039105603	577.6540237417719	802.4463839025333	2510.072784671584	543.7502848232818	843.1044184859253	2489.520529133583	658.1516527354071	780.0046588740634	2439.553111980466	623.495618598497	814.9295464707203	2458.713948753909	879.5103138195104	1073.800588814498	2054.326493842521	80.29747624759568	1016.2497626932	1881.109495773147	130.8803374391953	961.4915634700235	1903.737688769015	135.7231983696183	1010.276743375054	1913.739261255346	168.7039049722673	969.9154938894105	2393.365012346183	949.4784164363605	1124.699030410992	2071.680778826217	42.88812772236411	976.3941082441665	2011.327702888586	44.91753567028059	1071.448138732634	2277.928893375822	937.035547223501	1019.649512081478	1999.977311551166	212.9153751180343	1045.924663499678	1976.314903705943	239.6463283017381	1009.356898843668	2042.508237320886	283.5249368465455	1067.066989244611	2014.643035931506	308.2730276101567	1029.038545645775	2233.327327704535	559.3778261434886	1107.084695231855	2182.376148228831	583.1582490602265	1061.441334357677	2261.537759373213	664.4007701938456	1127.152919040139	2214.194978110163	685.9629009371226	1082.55733763735	
